# xmcd
#
# Track frame offsets:
# 150
# 14860
# 33046
# 43632
# 58706
# 71000
# 87433
# 99540
# 112999
# 130425
# 146261
# 158223
# 171288
# 189970
# 201309
# 218516
# 234053
# 247186
# 259992
# 273019
# 282799
# 297450
#
# Disc length: 4135 seconds
#
#
# Revision: 0
# Processed by: cddbd v1.5.2PL0 Copyright (c) Steve Scherf et al.
# Submitted via: FreeRIP 2.945 
#
DISCID=44102516
DTITLE=Orfeu and Menestrel - Orfeu and Menestrel - 22 Maiores Sucessos
DYEAR=1900
DGENRE=Sertanejo
TTITLE0=É De Você Que Eu Gosto Mais
TTITLE1=Mato Grosso
TTITLE2=O Lema Dos Mágicos
TTITLE3=Amante e Poeta
TTITLE4=Amor Incerto
TTITLE5=O Grande Chefe
TTITLE6=Setenta Vezes Sete
TTITLE7=O Capricho Da Sorte
TTITLE8=Força De Vontade
TTITLE9=Sem Você
TTITLE10=Na Intimidade
TTITLE11=Meu Xodó Especial
TTITLE12=Companheiro De Viola
TTITLE13=A Trapaceira
TTITLE14=O Brinquedo Da Solidão
TTITLE15=Anedota De Amador
TTITLE16=Não Vale A Pena
TTITLE17=A Pesar Dos Pesares
TTITLE18=Pobre Mulher
TTITLE19=Volte Novamente
TTITLE20=Palavra Adeus
TTITLE21=A Bíblia
EXTD=marcosherr@msn.com
EXTT0=
EXTT1=
EXTT2=
EXTT3=
EXTT4=
EXTT5=
EXTT6=
EXTT7=
EXTT8=
EXTT9=
EXTT10=
EXTT11=
EXTT12=
EXTT13=
EXTT14=
EXTT15=
EXTT16=
EXTT17=
EXTT18=
EXTT19=
EXTT20=
EXTT21=
PLAYORDER=
